<svg xmlns="http://www.w3.org/2000/svg" viewBox="0 0 512 512" width="512" height="512">
  <defs>
    <linearGradient id="cork" x1="0" y1="0" x2="0.3" y2="1">
      <stop offset="0" stop-color="#c99159"/>
      <stop offset="1" stop-color="#a86f3d"/>
    </linearGradient>
    <linearGradient id="frame" x1="0" y1="0" x2="0" y2="1">
      <stop offset="0" stop-color="#3a2a1e"/>
      <stop offset="1" stop-color="#22170f"/>
    </linearGradient>
    <linearGradient id="sheen" x1="0" y1="0" x2="1" y2="1">
      <stop offset="0" stop-color="#fff" stop-opacity="0.22"/>
      <stop offset="0.6" stop-color="#fff" stop-opacity="0"/>
    </linearGradient>
    <radialGradient id="pin" cx="0.38" cy="0.35" r="0.7">
      <stop offset="0" stop-color="#ff8a80"/>
      <stop offset="0.45" stop-color="#e53935"/>
      <stop offset="1" stop-color="#8e1414"/>
    </radialGradient>
    <filter id="lift" x="-20%" y="-20%" width="140%" height="150%">
      <feGaussianBlur in="SourceAlpha" stdDeviation="6"/>
      <feOffset dx="0" dy="7" result="blur"/>
      <feFlood flood-color="#2b1606" flood-opacity="0.45"/>
      <feComposite in2="blur" operator="in" result="shadow"/>
      <feMerge><feMergeNode in="shadow"/><feMergeNode in="SourceGraphic"/></feMerge>
    </filter>
    <clipPath id="board"><rect x="40" y="40" width="432" height="432" rx="86"/></clipPath>
  </defs>
  <rect x="12" y="12" width="488" height="488" rx="112" fill="url(#frame)"/>
  <rect x="40" y="40" width="432" height="432" rx="86" fill="url(#cork)"/>
  <g clip-path="url(#board)"><circle cx="184.1" cy="113.5" r="1.6" fill="#8a5529" opacity="0.64"/><circle cx="90.4" cy="289.8" r="2.2" fill="#8a5529" opacity="0.38"/><circle cx="222.6" cy="150.2" r="3.4" fill="#8a5529" opacity="0.64"/><circle cx="102.5" cy="143.1" r="1.6" fill="#e0b27e" opacity="0.55"/><circle cx="72.2" cy="142.2" r="2.2" fill="#d9a46c" opacity="0.50"/><circle cx="272.6" cy="284.9" r="2.2" fill="#8a5529" opacity="0.55"/><circle cx="312.7" cy="203.9" r="1.6" fill="#e0b27e" opacity="0.37"/><circle cx="136.0" cy="329.6" r="3.4" fill="#d9a46c" opacity="0.51"/><circle cx="428.8" cy="199.5" r="2.2" fill="#94602f" opacity="0.59"/><circle cx="151.6" cy="286.4" r="3.4" fill="#d9a46c" opacity="0.61"/><circle cx="169.5" cy="451.9" r="1.6" fill="#e0b27e" opacity="0.50"/><circle cx="360.9" cy="114.0" r="3.4" fill="#7a4a23" opacity="0.36"/><circle cx="324.6" cy="363.9" r="2.8" fill="#d9a46c" opacity="0.59"/><circle cx="294.5" cy="288.6" r="3.4" fill="#8a5529" opacity="0.64"/><circle cx="437.4" cy="245.4" r="1.6" fill="#8a5529" opacity="0.61"/><circle cx="178.3" cy="287.8" r="3.4" fill="#d9a46c" opacity="0.60"/><circle cx="413.9" cy="193.6" r="3.4" fill="#d9a46c" opacity="0.41"/><circle cx="99.8" cy="76.1" r="2.8" fill="#94602f" opacity="0.61"/><circle cx="214.3" cy="426.1" r="3.4" fill="#8a5529" opacity="0.41"/><circle cx="215.9" cy="165.4" r="2.2" fill="#7a4a23" opacity="0.65"/><circle cx="165.6" cy="221.4" r="2.8" fill="#7a4a23" opacity="0.69"/><circle cx="113.6" cy="123.9" r="2.2" fill="#94602f" opacity="0.35"/><circle cx="391.1" cy="126.4" r="2.8" fill="#8a5529" opacity="0.40"/><circle cx="270.1" cy="300.8" r="2.8" fill="#94602f" opacity="0.59"/><circle cx="262.3" cy="304.0" r="1.6" fill="#7a4a23" opacity="0.66"/><circle cx="370.2" cy="408.8" r="3.4" fill="#7a4a23" opacity="0.49"/><circle cx="94.2" cy="310.8" r="1.6" fill="#94602f" opacity="0.37"/><circle cx="137.2" cy="118.2" r="2.8" fill="#e0b27e" opacity="0.37"/><circle cx="52.1" cy="113.7" r="1.6" fill="#d9a46c" opacity="0.56"/><circle cx="80.7" cy="136.8" r="3.4" fill="#94602f" opacity="0.57"/><circle cx="441.8" cy="297.7" r="3.4" fill="#8a5529" opacity="0.39"/><circle cx="251.1" cy="451.0" r="3.4" fill="#7a4a23" opacity="0.46"/><circle cx="110.8" cy="357.9" r="2.8" fill="#7a4a23" opacity="0.64"/><circle cx="117.9" cy="61.4" r="2.8" fill="#94602f" opacity="0.59"/><circle cx="425.0" cy="361.3" r="2.8" fill="#8a5529" opacity="0.59"/><circle cx="158.5" cy="201.6" r="2.2" fill="#d9a46c" opacity="0.62"/><circle cx="269.3" cy="369.9" r="2.8" fill="#94602f" opacity="0.56"/><circle cx="373.7" cy="361.4" r="2.2" fill="#94602f" opacity="0.64"/><circle cx="353.9" cy="144.5" r="3.4" fill="#d9a46c" opacity="0.61"/><circle cx="455.8" cy="374.4" r="3.4" fill="#d9a46c" opacity="0.42"/><circle cx="298.9" cy="192.5" r="2.8" fill="#d9a46c" opacity="0.38"/><circle cx="93.7" cy="243.8" r="2.8" fill="#94602f" opacity="0.52"/><circle cx="454.0" cy="301.0" r="1.6" fill="#7a4a23" opacity="0.67"/><circle cx="192.4" cy="314.4" r="1.6" fill="#7a4a23" opacity="0.62"/><circle cx="358.1" cy="247.0" r="2.2" fill="#7a4a23" opacity="0.63"/><circle cx="187.7" cy="378.7" r="3.4" fill="#7a4a23" opacity="0.49"/><circle cx="438.3" cy="347.7" r="2.2" fill="#94602f" opacity="0.36"/><circle cx="293.1" cy="241.9" r="2.2" fill="#e0b27e" opacity="0.64"/><circle cx="452.0" cy="320.2" r="2.8" fill="#94602f" opacity="0.54"/><circle cx="105.4" cy="57.8" r="1.6" fill="#e0b27e" opacity="0.61"/><circle cx="108.8" cy="454.5" r="2.2" fill="#94602f" opacity="0.36"/><circle cx="138.8" cy="256.5" r="2.8" fill="#d9a46c" opacity="0.54"/><circle cx="392.4" cy="76.8" r="2.8" fill="#7a4a23" opacity="0.58"/><circle cx="384.5" cy="262.8" r="2.2" fill="#e0b27e" opacity="0.40"/><circle cx="260.3" cy="408.1" r="2.2" fill="#e0b27e" opacity="0.35"/><circle cx="378.1" cy="122.3" r="3.4" fill="#e0b27e" opacity="0.60"/><circle cx="279.0" cy="185.0" r="3.4" fill="#8a5529" opacity="0.66"/><circle cx="75.2" cy="130.1" r="1.6" fill="#8a5529" opacity="0.53"/><circle cx="281.2" cy="362.1" r="1.6" fill="#7a4a23" opacity="0.46"/><circle cx="449.1" cy="299.3" r="2.2" fill="#d9a46c" opacity="0.51"/><circle cx="269.6" cy="247.0" r="2.2" fill="#e0b27e" opacity="0.66"/><circle cx="436.4" cy="157.9" r="2.2" fill="#7a4a23" opacity="0.40"/><circle cx="101.6" cy="232.4" r="1.6" fill="#94602f" opacity="0.50"/><circle cx="138.8" cy="175.5" r="1.6" fill="#94602f" opacity="0.68"/><circle cx="314.5" cy="201.4" r="2.8" fill="#94602f" opacity="0.69"/><circle cx="141.6" cy="440.6" r="3.4" fill="#7a4a23" opacity="0.41"/><circle cx="324.5" cy="143.3" r="3.4" fill="#e0b27e" opacity="0.49"/><circle cx="223.9" cy="197.5" r="1.6" fill="#d9a46c" opacity="0.36"/><circle cx="278.1" cy="231.7" r="1.6" fill="#7a4a23" opacity="0.47"/><circle cx="306.6" cy="261.0" r="1.6" fill="#8a5529" opacity="0.69"/><circle cx="373.7" cy="448.5" r="1.6" fill="#8a5529" opacity="0.44"/><circle cx="68.2" cy="369.8" r="2.8" fill="#94602f" opacity="0.64"/><circle cx="398.6" cy="327.8" r="2.8" fill="#7a4a23" opacity="0.40"/><circle cx="427.0" cy="284.8" r="2.8" fill="#8a5529" opacity="0.45"/><circle cx="378.2" cy="126.8" r="1.6" fill="#d9a46c" opacity="0.68"/><circle cx="310.9" cy="379.1" r="1.6" fill="#e0b27e" opacity="0.65"/><circle cx="79.2" cy="404.0" r="3.4" fill="#8a5529" opacity="0.47"/><circle cx="277.7" cy="430.1" r="2.8" fill="#e0b27e" opacity="0.40"/><circle cx="267.0" cy="149.3" r="1.6" fill="#94602f" opacity="0.44"/><circle cx="125.9" cy="432.4" r="2.8" fill="#e0b27e" opacity="0.62"/><circle cx="170.3" cy="256.0" r="2.2" fill="#d9a46c" opacity="0.47"/><circle cx="59.4" cy="154.2" r="1.6" fill="#8a5529" opacity="0.61"/><circle cx="276.8" cy="129.3" r="3.4" fill="#94602f" opacity="0.68"/><circle cx="95.4" cy="386.1" r="3.4" fill="#7a4a23" opacity="0.54"/><circle cx="414.6" cy="447.9" r="2.8" fill="#94602f" opacity="0.69"/><circle cx="191.8" cy="391.6" r="2.2" fill="#7a4a23" opacity="0.70"/><circle cx="452.6" cy="393.5" r="1.6" fill="#8a5529" opacity="0.57"/><circle cx="411.0" cy="227.7" r="1.6" fill="#8a5529" opacity="0.58"/><circle cx="207.4" cy="258.4" r="2.8" fill="#e0b27e" opacity="0.43"/><circle cx="171.6" cy="239.5" r="2.2" fill="#d9a46c" opacity="0.51"/><circle cx="159.4" cy="444.4" r="2.8" fill="#94602f" opacity="0.36"/><circle cx="412.0" cy="140.9" r="2.2" fill="#8a5529" opacity="0.47"/><circle cx="86.2" cy="165.8" r="2.2" fill="#94602f" opacity="0.53"/><circle cx="54.0" cy="159.8" r="1.6" fill="#94602f" opacity="0.49"/><circle cx="69.0" cy="61.2" r="2.8" fill="#94602f" opacity="0.38"/><circle cx="442.7" cy="400.1" r="2.2" fill="#e0b27e" opacity="0.49"/><circle cx="185.1" cy="453.8" r="2.2" fill="#d9a46c" opacity="0.60"/><circle cx="314.4" cy="69.9" r="3.4" fill="#e0b27e" opacity="0.40"/><circle cx="265.7" cy="257.8" r="1.6" fill="#e0b27e" opacity="0.63"/><circle cx="342.2" cy="442.1" r="2.2" fill="#8a5529" opacity="0.36"/><circle cx="106.3" cy="199.2" r="1.6" fill="#7a4a23" opacity="0.64"/><circle cx="279.9" cy="308.1" r="2.2" fill="#7a4a23" opacity="0.44"/><circle cx="238.4" cy="80.6" r="1.6" fill="#e0b27e" opacity="0.37"/><circle cx="352.6" cy="154.9" r="1.6" fill="#d9a46c" opacity="0.43"/><circle cx="360.6" cy="146.1" r="3.4" fill="#7a4a23" opacity="0.65"/><circle cx="83.3" cy="423.5" r="2.8" fill="#8a5529" opacity="0.57"/><circle cx="314.2" cy="83.6" r="2.2" fill="#d9a46c" opacity="0.44"/><circle cx="355.2" cy="176.2" r="2.2" fill="#8a5529" opacity="0.52"/><circle cx="250.2" cy="448.8" r="1.6" fill="#94602f" opacity="0.59"/><circle cx="170.7" cy="262.7" r="3.4" fill="#7a4a23" opacity="0.51"/><circle cx="100.3" cy="416.6" r="2.2" fill="#d9a46c" opacity="0.69"/><circle cx="434.0" cy="59.1" r="3.4" fill="#8a5529" opacity="0.64"/><circle cx="447.0" cy="235.4" r="2.8" fill="#7a4a23" opacity="0.42"/><circle cx="437.8" cy="138.0" r="1.6" fill="#94602f" opacity="0.61"/><circle cx="158.8" cy="198.7" r="2.8" fill="#8a5529" opacity="0.60"/><circle cx="146.4" cy="418.3" r="3.4" fill="#7a4a23" opacity="0.36"/><circle cx="53.5" cy="252.6" r="3.4" fill="#7a4a23" opacity="0.46"/><circle cx="109.4" cy="192.3" r="2.8" fill="#8a5529" opacity="0.64"/><circle cx="52.7" cy="358.3" r="3.4" fill="#8a5529" opacity="0.68"/><circle cx="131.9" cy="56.8" r="2.8" fill="#d9a46c" opacity="0.48"/><circle cx="212.3" cy="459.5" r="1.6" fill="#d9a46c" opacity="0.67"/><circle cx="360.3" cy="400.5" r="2.8" fill="#8a5529" opacity="0.37"/><circle cx="322.1" cy="311.1" r="2.2" fill="#94602f" opacity="0.69"/><circle cx="230.0" cy="180.8" r="2.8" fill="#7a4a23" opacity="0.66"/><circle cx="383.3" cy="309.4" r="2.2" fill="#8a5529" opacity="0.37"/><circle cx="350.8" cy="236.0" r="2.2" fill="#d9a46c" opacity="0.52"/><circle cx="424.1" cy="276.4" r="2.2" fill="#7a4a23" opacity="0.50"/><circle cx="167.0" cy="156.3" r="2.8" fill="#7a4a23" opacity="0.58"/><circle cx="174.7" cy="279.4" r="3.4" fill="#8a5529" opacity="0.41"/><circle cx="118.0" cy="136.8" r="3.4" fill="#e0b27e" opacity="0.43"/><circle cx="421.8" cy="458.6" r="3.4" fill="#7a4a23" opacity="0.40"/><circle cx="130.5" cy="89.0" r="2.8" fill="#e0b27e" opacity="0.38"/><circle cx="149.6" cy="157.4" r="2.2" fill="#8a5529" opacity="0.61"/><circle cx="220.4" cy="220.9" r="2.2" fill="#7a4a23" opacity="0.44"/><circle cx="358.9" cy="255.2" r="2.8" fill="#94602f" opacity="0.59"/><circle cx="267.9" cy="374.4" r="2.2" fill="#8a5529" opacity="0.44"/><circle cx="153.4" cy="215.1" r="3.4" fill="#7a4a23" opacity="0.68"/><circle cx="398.3" cy="408.1" r="1.6" fill="#94602f" opacity="0.36"/><circle cx="341.5" cy="417.4" r="3.4" fill="#e0b27e" opacity="0.52"/><circle cx="81.8" cy="431.5" r="3.4" fill="#7a4a23" opacity="0.44"/><circle cx="96.5" cy="115.0" r="1.6" fill="#7a4a23" opacity="0.38"/><circle cx="369.0" cy="52.6" r="2.2" fill="#94602f" opacity="0.55"/><circle cx="67.3" cy="343.7" r="2.2" fill="#d9a46c" opacity="0.53"/><circle cx="230.5" cy="363.6" r="1.6" fill="#8a5529" opacity="0.46"/><circle cx="437.0" cy="130.2" r="2.8" fill="#94602f" opacity="0.63"/><circle cx="52.5" cy="271.3" r="3.4" fill="#d9a46c" opacity="0.69"/><circle cx="315.0" cy="412.6" r="3.4" fill="#e0b27e" opacity="0.43"/><circle cx="152.8" cy="443.9" r="2.8" fill="#8a5529" opacity="0.36"/><circle cx="255.3" cy="327.2" r="3.4" fill="#8a5529" opacity="0.44"/><circle cx="324.3" cy="429.5" r="2.2" fill="#7a4a23" opacity="0.36"/><circle cx="189.9" cy="223.6" r="3.4" fill="#94602f" opacity="0.35"/><circle cx="171.2" cy="396.8" r="1.6" fill="#94602f" opacity="0.52"/><circle cx="133.8" cy="364.5" r="2.2" fill="#94602f" opacity="0.51"/><circle cx="160.1" cy="414.8" r="1.6" fill="#e0b27e" opacity="0.52"/><circle cx="128.4" cy="143.1" r="3.4" fill="#8a5529" opacity="0.68"/><circle cx="111.7" cy="212.5" r="2.2" fill="#8a5529" opacity="0.69"/><circle cx="109.9" cy="73.2" r="1.6" fill="#94602f" opacity="0.49"/><circle cx="418.5" cy="412.5" r="1.6" fill="#8a5529" opacity="0.68"/><circle cx="186.3" cy="127.7" r="3.4" fill="#8a5529" opacity="0.46"/><circle cx="348.0" cy="394.4" r="2.8" fill="#7a4a23" opacity="0.41"/><circle cx="53.2" cy="166.2" r="2.8" fill="#7a4a23" opacity="0.68"/><circle cx="102.5" cy="445.4" r="2.2" fill="#7a4a23" opacity="0.47"/><circle cx="387.2" cy="387.4" r="3.4" fill="#8a5529" opacity="0.37"/><circle cx="245.2" cy="204.1" r="3.4" fill="#94602f" opacity="0.46"/><circle cx="352.8" cy="245.6" r="3.4" fill="#94602f" opacity="0.63"/><circle cx="364.8" cy="68.6" r="1.6" fill="#7a4a23" opacity="0.37"/><circle cx="427.4" cy="156.9" r="1.6" fill="#e0b27e" opacity="0.47"/><circle cx="163.1" cy="442.7" r="1.6" fill="#d9a46c" opacity="0.61"/><circle cx="333.3" cy="429.1" r="2.8" fill="#8a5529" opacity="0.60"/><circle cx="295.0" cy="380.7" r="1.6" fill="#8a5529" opacity="0.64"/><circle cx="95.8" cy="344.0" r="3.4" fill="#7a4a23" opacity="0.63"/><circle cx="424.7" cy="384.4" r="2.2" fill="#7a4a23" opacity="0.41"/><circle cx="379.4" cy="353.3" r="2.2" fill="#e0b27e" opacity="0.43"/><circle cx="403.4" cy="240.0" r="1.6" fill="#e0b27e" opacity="0.42"/><circle cx="359.2" cy="152.9" r="1.6" fill="#8a5529" opacity="0.52"/><circle cx="274.2" cy="117.6" r="3.4" fill="#8a5529" opacity="0.70"/><circle cx="160.1" cy="86.3" r="1.6" fill="#7a4a23" opacity="0.52"/><circle cx="341.6" cy="234.4" r="2.2" fill="#94602f" opacity="0.50"/><circle cx="305.1" cy="327.0" r="1.6" fill="#d9a46c" opacity="0.45"/><circle cx="283.3" cy="204.2" r="2.8" fill="#94602f" opacity="0.50"/><circle cx="127.8" cy="148.1" r="2.8" fill="#e0b27e" opacity="0.42"/><circle cx="78.4" cy="154.7" r="2.2" fill="#e0b27e" opacity="0.53"/><circle cx="317.1" cy="93.0" r="3.4" fill="#8a5529" opacity="0.39"/><circle cx="245.7" cy="386.2" r="3.4" fill="#d9a46c" opacity="0.36"/><circle cx="171.8" cy="100.6" r="2.2" fill="#e0b27e" opacity="0.69"/><circle cx="289.9" cy="431.5" r="2.8" fill="#e0b27e" opacity="0.65"/><circle cx="235.2" cy="158.1" r="1.6" fill="#8a5529" opacity="0.57"/><circle cx="341.6" cy="194.7" r="1.6" fill="#d9a46c" opacity="0.47"/><circle cx="70.0" cy="459.9" r="1.6" fill="#e0b27e" opacity="0.61"/><circle cx="424.9" cy="384.4" r="2.8" fill="#7a4a23" opacity="0.59"/><circle cx="127.5" cy="179.4" r="2.2" fill="#8a5529" opacity="0.63"/><circle cx="275.6" cy="77.8" r="1.6" fill="#7a4a23" opacity="0.58"/><circle cx="115.1" cy="269.9" r="2.2" fill="#7a4a23" opacity="0.59"/><circle cx="219.2" cy="167.6" r="2.8" fill="#7a4a23" opacity="0.68"/><circle cx="179.4" cy="283.1" r="2.8" fill="#7a4a23" opacity="0.50"/><circle cx="404.6" cy="458.6" r="2.8" fill="#94602f" opacity="0.49"/><circle cx="217.2" cy="436.3" r="3.4" fill="#94602f" opacity="0.50"/><circle cx="386.7" cy="217.7" r="2.8" fill="#7a4a23" opacity="0.62"/><circle cx="105.0" cy="73.1" r="2.2" fill="#7a4a23" opacity="0.38"/><circle cx="305.9" cy="203.3" r="2.2" fill="#94602f" opacity="0.47"/><circle cx="118.0" cy="122.1" r="1.6" fill="#8a5529" opacity="0.48"/><circle cx="359.5" cy="375.2" r="2.2" fill="#d9a46c" opacity="0.39"/><circle cx="436.8" cy="450.0" r="3.4" fill="#d9a46c" opacity="0.37"/><circle cx="429.9" cy="210.3" r="2.2" fill="#94602f" opacity="0.57"/><circle cx="302.8" cy="132.0" r="3.4" fill="#94602f" opacity="0.55"/><circle cx="69.0" cy="434.9" r="2.2" fill="#7a4a23" opacity="0.48"/><circle cx="113.0" cy="448.0" r="2.2" fill="#8a5529" opacity="0.66"/><circle cx="395.7" cy="326.3" r="2.8" fill="#8a5529" opacity="0.49"/><circle cx="237.9" cy="398.4" r="2.8" fill="#7a4a23" opacity="0.46"/><circle cx="153.7" cy="210.8" r="2.8" fill="#7a4a23" opacity="0.53"/><circle cx="124.9" cy="53.4" r="3.4" fill="#7a4a23" opacity="0.43"/><circle cx="363.5" cy="370.2" r="3.4" fill="#94602f" opacity="0.63"/><circle cx="215.3" cy="79.4" r="2.8" fill="#7a4a23" opacity="0.48"/><circle cx="379.3" cy="257.8" r="1.6" fill="#8a5529" opacity="0.57"/><circle cx="85.6" cy="351.3" r="1.6" fill="#8a5529" opacity="0.61"/><circle cx="417.1" cy="318.3" r="2.2" fill="#8a5529" opacity="0.65"/><circle cx="458.4" cy="350.7" r="1.6" fill="#94602f" opacity="0.40"/><circle cx="413.4" cy="169.5" r="2.2" fill="#94602f" opacity="0.37"/><circle cx="195.2" cy="360.5" r="2.2" fill="#d9a46c" opacity="0.66"/><circle cx="164.2" cy="384.8" r="2.2" fill="#d9a46c" opacity="0.53"/><circle cx="427.3" cy="137.0" r="2.8" fill="#e0b27e" opacity="0.53"/><circle cx="182.2" cy="67.0" r="2.2" fill="#7a4a23" opacity="0.41"/><circle cx="434.1" cy="329.3" r="3.4" fill="#94602f" opacity="0.63"/><circle cx="159.9" cy="365.5" r="1.6" fill="#d9a46c" opacity="0.69"/><circle cx="236.8" cy="264.8" r="1.6" fill="#d9a46c" opacity="0.70"/><circle cx="308.9" cy="212.9" r="2.8" fill="#d9a46c" opacity="0.48"/><circle cx="202.5" cy="111.6" r="2.8" fill="#8a5529" opacity="0.50"/><circle cx="124.1" cy="355.4" r="1.6" fill="#d9a46c" opacity="0.64"/><circle cx="155.5" cy="312.8" r="2.8" fill="#8a5529" opacity="0.61"/><circle cx="142.4" cy="170.7" r="3.4" fill="#7a4a23" opacity="0.53"/><circle cx="417.4" cy="105.9" r="2.2" fill="#e0b27e" opacity="0.58"/><circle cx="61.1" cy="53.1" r="2.8" fill="#d9a46c" opacity="0.39"/><circle cx="197.7" cy="143.5" r="2.8" fill="#e0b27e" opacity="0.40"/><circle cx="201.4" cy="390.0" r="2.2" fill="#94602f" opacity="0.35"/><circle cx="379.0" cy="340.6" r="3.4" fill="#8a5529" opacity="0.37"/><circle cx="111.0" cy="323.5" r="2.8" fill="#7a4a23" opacity="0.63"/><circle cx="446.6" cy="74.9" r="2.8" fill="#e0b27e" opacity="0.58"/><circle cx="233.1" cy="434.4" r="3.4" fill="#94602f" opacity="0.41"/><circle cx="52.2" cy="77.1" r="1.6" fill="#7a4a23" opacity="0.41"/><circle cx="117.0" cy="424.0" r="1.6" fill="#8a5529" opacity="0.56"/><circle cx="320.0" cy="132.5" r="3.4" fill="#94602f" opacity="0.53"/><circle cx="314.2" cy="316.2" r="3.4" fill="#e0b27e" opacity="0.41"/><circle cx="178.2" cy="174.5" r="1.6" fill="#7a4a23" opacity="0.60"/><circle cx="54.6" cy="396.5" r="3.4" fill="#8a5529" opacity="0.61"/><circle cx="236.6" cy="144.2" r="1.6" fill="#d9a46c" opacity="0.43"/><circle cx="67.8" cy="188.9" r="2.8" fill="#8a5529" opacity="0.44"/><circle cx="277.9" cy="229.9" r="2.8" fill="#d9a46c" opacity="0.57"/><circle cx="445.8" cy="140.5" r="1.6" fill="#94602f" opacity="0.44"/><circle cx="148.3" cy="355.5" r="2.2" fill="#d9a46c" opacity="0.42"/><circle cx="210.6" cy="297.3" r="3.4" fill="#e0b27e" opacity="0.51"/><circle cx="394.6" cy="336.6" r="1.6" fill="#7a4a23" opacity="0.68"/><circle cx="147.4" cy="413.0" r="2.2" fill="#7a4a23" opacity="0.57"/><circle cx="83.7" cy="423.6" r="2.2" fill="#8a5529" opacity="0.36"/><circle cx="95.5" cy="431.0" r="2.8" fill="#94602f" opacity="0.60"/><circle cx="64.6" cy="108.5" r="1.6" fill="#8a5529" opacity="0.61"/><circle cx="78.8" cy="292.9" r="2.8" fill="#94602f" opacity="0.64"/><circle cx="386.4" cy="415.6" r="1.6" fill="#7a4a23" opacity="0.39"/><circle cx="135.9" cy="97.7" r="1.6" fill="#8a5529" opacity="0.64"/><circle cx="309.7" cy="169.2" r="1.6" fill="#94602f" opacity="0.38"/><circle cx="361.0" cy="135.6" r="2.8" fill="#d9a46c" opacity="0.50"/></g>
  <g transform="rotate(-6 146 118)" filter="url(#lift)"><rect x="90.0" y="118" width="112" height="214" rx="10" fill="#5b8def"/><rect x="90.0" y="118" width="112" height="214" rx="10" fill="url(#sheen)"/><rect x="106.0" y="162" width="72.0" height="9" rx="4.5" fill="#173a7a" opacity="0.45"/><rect x="106.0" y="188" width="56.0" height="9" rx="4.5" fill="#173a7a" opacity="0.45"/><rect x="106.0" y="214" width="68.0" height="9" rx="4.5" fill="#173a7a" opacity="0.45"/><rect x="106.0" y="240" width="40.0" height="9" rx="4.5" fill="#173a7a" opacity="0.45"/></g>
  <g transform="rotate(3 258 146)" filter="url(#lift)"><rect x="202.0" y="146" width="112" height="252" rx="10" fill="#f0c674"/><rect x="202.0" y="146" width="112" height="252" rx="10" fill="url(#sheen)"/><rect x="218.0" y="190" width="68.0" height="9" rx="4.5" fill="#7a5410" opacity="0.45"/><rect x="218.0" y="216" width="76.0" height="9" rx="4.5" fill="#7a5410" opacity="0.45"/><rect x="218.0" y="242" width="48.0" height="9" rx="4.5" fill="#7a5410" opacity="0.45"/><rect x="218.0" y="268" width="64.0" height="9" rx="4.5" fill="#7a5410" opacity="0.45"/><rect x="218.0" y="294" width="36.0" height="9" rx="4.5" fill="#7a5410" opacity="0.45"/></g>
  <g transform="rotate(-3 370 108)" filter="url(#lift)"><rect x="314.0" y="108" width="112" height="188" rx="10" fill="#4cb782"/><rect x="314.0" y="108" width="112" height="188" rx="10" fill="url(#sheen)"/><rect x="330.0" y="152" width="64.0" height="9" rx="4.5" fill="#14532d" opacity="0.45"/><rect x="330.0" y="178" width="48.0" height="9" rx="4.5" fill="#14532d" opacity="0.45"/><rect x="330.0" y="204" width="72.0" height="9" rx="4.5" fill="#14532d" opacity="0.45"/></g>
  <path d="M 146 122 Q 202 174 258 150 Q 314 196 370 112"
        fill="none" stroke="#7a0f0f" stroke-width="7" stroke-linecap="round" opacity="0.35" transform="translate(3 5)"/>
  <path d="M 146 122 Q 202 174 258 150 Q 314 196 370 112"
        fill="none" stroke="#d32f2f" stroke-width="6" stroke-linecap="round"/>
  <ellipse cx="150" cy="131" rx="13" ry="6" fill="#000" opacity="0.28"/><circle cx="146" cy="122" r="15" fill="url(#pin)"/><circle cx="141" cy="117" r="4.5" fill="#fff" opacity="0.7"/><ellipse cx="262" cy="159" rx="13" ry="6" fill="#000" opacity="0.28"/><circle cx="258" cy="150" r="15" fill="url(#pin)"/><circle cx="253" cy="145" r="4.5" fill="#fff" opacity="0.7"/><ellipse cx="374" cy="121" rx="13" ry="6" fill="#000" opacity="0.28"/><circle cx="370" cy="112" r="15" fill="url(#pin)"/><circle cx="365" cy="107" r="4.5" fill="#fff" opacity="0.7"/>
</svg>
